<svg xmlns="http://www.w3.org/2000/svg" width="20" height="20" viewBox="0 0 20 20" fill="none">
  <g clip-path="url(#clip0_5008_23688)">
    <path d="M10 19.5C15.2467 19.5 19.5 15.2467 19.5 10C19.5 4.75329 15.2467 0.5 10 0.5C4.75329 0.5 0.5 4.75329 0.5 10C0.5 15.2467 4.75329 19.5 10 19.5Z" stroke="#9DA1A8" stroke-linecap="round" stroke-linejoin="round"/>
    <path d="M10.0009 15.0213C10.3433 15.0213 10.6209 14.7437 10.6209 14.4012C10.6209 14.0588 10.3433 13.7812 10.0009 13.7812C9.65844 13.7812 9.38086 14.0588 9.38086 14.4012C9.38086 14.7437 9.65844 15.0213 10.0009 15.0213Z" fill="#9DA1A8"/>
    <path d="M10 12.3209C10 11.2509 10.56 10.2709 11.46 9.70094C12.23 9.21094 12.75 8.35094 12.75 7.37094C12.75 6.09094 11.52 4.96094 10 4.96094C8.48 4.96094 7.25 6.07094 7.25 7.37094" stroke="#9DA1A8" stroke-linecap="round" stroke-linejoin="round"/>
  </g>
  <defs>
    <clipPath id="clip0_5008_23688">
      <rect width="20" height="20" fill="white"/>
    </clipPath>
  </defs>
</svg>